<svg width="26" height="26" viewBox="0 0 26 26" fill="none" xmlns="http://www.w3.org/2000/svg">
<path d="M3.01953 12.271C3.01953 12.6954 3.34598 13.0626 3.8683 13.0626C4.1213 13.0626 4.34982 12.9239 4.55385 12.7607L5.48424 11.9772V19.5672C5.48424 20.775 6.21059 21.4932 7.45926 21.4932H18.5015C19.742 21.4932 20.4765 20.775 20.4765 19.5672V11.9364L21.4558 12.7607C21.6517 12.9239 21.8802 13.0626 22.1332 13.0626C22.6147 13.0626 22.982 12.7607 22.982 12.2873C22.982 12.0098 22.8759 11.7895 22.6637 11.6099L20.4765 9.76547V6.28877C20.4765 5.92151 20.2398 5.69299 19.8726 5.69299H18.7463C18.3872 5.69299 18.1424 5.92151 18.1424 6.28877V7.80676L14.1678 4.4688C13.4578 3.87303 12.5601 3.87303 11.85 4.4688L3.34598 11.6099C3.12563 11.7895 3.01953 12.0343 3.01953 12.271ZM15.3512 14.5235C15.3512 14.1399 15.1064 13.8951 14.7228 13.8951H11.2951C10.9115 13.8951 10.6585 14.1399 10.6585 14.5235V19.8691H7.89181C7.38581 19.8691 7.10833 19.5835 7.10833 19.0693V10.6142L12.6498 5.96232C12.8783 5.76644 13.1395 5.76644 13.368 5.96232L18.8442 10.5653V19.0693C18.8442 19.5835 18.5668 19.8691 18.0608 19.8691H15.3512V14.5235Z" fill="#B1B1B1"/>
</svg>
