<svg width="26" height="26" viewBox="0 0 26 26" fill="none" xmlns="http://www.w3.org/2000/svg">
<path d="M12.2237 22.5705C12.7623 22.5705 13.1541 22.2277 13.1541 21.583V15.3233C13.1541 15.0458 13.2847 14.8826 13.505 14.8826C13.7254 14.8826 13.8641 15.0458 13.8641 15.3233V21.583C13.8641 22.2277 14.2558 22.5705 14.7945 22.5705C15.325 22.5705 15.7167 22.2277 15.7167 21.583V11.006C15.7167 10.7856 15.8228 10.655 16.0024 10.655C16.1737 10.655 16.288 10.7856 16.288 11.006V15.3478C16.288 15.9272 16.6308 16.2537 17.1205 16.2537C17.6101 16.2537 17.9447 15.9272 17.9447 15.3478V11.1039C17.9447 8.51678 16.4839 7.84755 13.5866 7.84755H12.3298C11.7667 7.84755 11.481 7.76594 11.0321 7.43949L9.95485 6.68049L9.75898 3.62818C9.71818 3.04056 9.34276 2.73044 8.85308 2.76308C8.35524 2.78756 8.01247 3.14666 8.04512 3.72611L8.24099 6.75394C8.28179 7.41501 8.54295 7.79859 8.95102 8.10055L10.9097 9.52878C11.1954 9.73281 11.2933 9.98581 11.2933 10.3123V21.583C11.2933 22.2277 11.6932 22.5705 12.2237 22.5705ZM13.5866 7.03143C14.6721 7.03143 15.5453 6.13369 15.5453 5.08088C15.5453 3.99543 14.6721 3.11402 13.5866 3.11402C12.493 3.11402 11.6361 3.99543 11.6361 5.08088C11.6361 6.15001 12.493 7.03143 13.5866 7.03143Z" fill="#B1B1B1"/>
</svg>
