<svg width="26" height="26" viewBox="0 0 26 26" fill="none" xmlns="http://www.w3.org/2000/svg">
<path d="M5.53962 20.5952C5.80894 20.5952 6.05378 20.5054 6.38023 20.3177L10.3466 18.1795L14.6721 20.6034C15.0149 20.7911 15.374 20.8809 15.7249 20.8809C16.0677 20.8809 16.4023 20.7992 16.7042 20.6197L20.7604 18.3345C21.3235 18.0163 21.5684 17.5674 21.5684 16.9471V5.98654C21.5684 5.29283 21.1521 4.8766 20.4666 4.8766C20.1973 4.8766 19.9524 4.9827 19.6178 5.16225L15.5045 7.44741L11.228 4.86844C10.9179 4.6889 10.5833 4.59912 10.2405 4.59912C9.9059 4.59912 9.57129 4.68073 9.27748 4.85212L5.24581 7.14544C4.68269 7.46373 4.42969 7.89628 4.42969 8.51653V19.4934C4.42969 20.1872 4.84591 20.5952 5.53962 20.5952ZM9.6121 16.7186L6.25781 18.5631C6.20068 18.5875 6.15172 18.612 6.11091 18.612C6.01297 18.612 5.96401 18.5386 5.96401 18.4243V8.94092C5.96401 8.7124 6.04562 8.5655 6.25781 8.44308L9.34277 6.65576C9.43255 6.59863 9.51416 6.55783 9.6121 6.50886V16.7186ZM11.1627 16.7594V6.70473C11.2443 6.74554 11.3341 6.7945 11.4157 6.84347L14.8353 8.90827V18.8161C14.7292 18.7589 14.6231 18.7018 14.5089 18.6365L11.1627 16.7594ZM16.3941 18.9303V8.75321L19.7484 6.92508C19.7892 6.9006 19.8382 6.88428 19.879 6.88428C19.9769 6.88428 20.0422 6.95773 20.0422 7.06383V16.4983C20.0422 16.7349 19.9606 16.8818 19.7402 17.0043L16.7695 18.7263C16.6471 18.7997 16.5165 18.8732 16.3941 18.9303Z" fill="#B1B1B1"/>
</svg>
