<svg width="26" height="26" viewBox="0 0 26 26" fill="none" xmlns="http://www.w3.org/2000/svg">
<path d="M6.021 19.7631H19.9686C21.7396 19.7631 22.6537 18.8409 22.6537 17.0944V8.2802C22.6537 6.53369 21.7396 5.61963 19.9686 5.61963H6.021C4.25816 5.61963 3.33594 6.53369 3.33594 8.2802V17.0944C3.33594 18.8491 4.25816 19.7631 6.021 19.7631ZM4.96003 8.42711C4.96003 7.64362 5.37626 7.25188 6.12709 7.25188H19.8625C20.6134 7.25188 21.0296 7.64362 21.0296 8.42711V9.01472H4.96003V8.42711ZM6.12709 18.1309C5.37626 18.1309 4.96003 17.7391 4.96003 16.9556V10.9326H21.0296V16.9556C21.0296 17.7391 20.6134 18.1309 19.8625 18.1309H6.12709ZM7.23703 16.6537H9.23654C9.71805 16.6537 10.0445 16.3354 10.0445 15.8783V14.3604C10.0445 13.9033 9.71805 13.585 9.23654 13.585H7.23703C6.76367 13.585 6.43722 13.9033 6.43722 14.3604V15.8783C6.43722 16.3354 6.76367 16.6537 7.23703 16.6537Z" fill="#B1B1B1"/>
</svg>
